<svg id="Layer_2" data-name="Layer 2" xmlns="http://www.w3.org/2000/svg" viewBox="0 0 1018.15 899.37"><defs><style>.cls-1{fill:#231f20;}</style></defs><title>4</title><path class="cls-1" d="M829.69,614.88l-7.22,17.41-13.59,4.85-17-8.48-.57.26,17.57,8.76,14-5,7.46-18C830.1,614.75,829.9,614.81,829.69,614.88ZM798.58,302.29a11.9,11.9,0,0,0-9.81-.75L616,364.79a11.88,11.88,0,0,0-7.08,7.09l-51.11,140.8L764,615.37l.54-.29L558.47,512.44l51-140.39a11.33,11.33,0,0,1,6.78-6.79L789,302a11.35,11.35,0,0,1,9.39.72l130.88,72.18L841.17,587.2c.2-.05.4-.1.6-.13l88.08-212.39Z" transform="translate(-191.7 -300.32)"/><path class="cls-1" d="M830.31,614.7c-.21,0-.41.11-.62.18l-7.22,17.41-13.59,4.85-17-8.48-.57.26h0l-.59.27,18,8.94.19.1,14.41-5.15,7.69-18.55ZM798.82,301.86a12.35,12.35,0,0,0-10.22-.79L615.87,364.32a12.32,12.32,0,0,0-7.38,7.39l-51.11,140.8-.15.42L763.5,615.65l.54-.28.54-.29L558.47,512.44l51-140.39a11.33,11.33,0,0,1,6.78-6.79L789,302a11.35,11.35,0,0,1,9.39.72l130.88,72.18L841.17,587.2c.2-.05.4-.1.6-.13l.6-.13,87.94-212.06.17-.42Z" transform="translate(-191.7 -300.32)"/><path class="cls-1" d="M1120.77,670.1c-57.47-57.87-133.89-89.75-215.17-89.75a304.65,304.65,0,0,0-63.23,6.59l-.6.13c-.2,0-.4.08-.6.13l88.05-212.29L798.34,302.73A11.35,11.35,0,0,0,789,302L616.21,365.26a11.33,11.33,0,0,0-6.78,6.79l-51,140.39L764.58,615.08l-.54.29-.54.28a305.37,305.37,0,0,0-73.07,54.45C633,728,601.35,804.88,601.35,886.68q0,3.6.08,7.19a315.79,315.79,0,0,0,36.39,139.87,294.73,294.73,0,0,0,42.58,59L698,1076.45c-46.8-50.49-71.87-114.86-72.64-186.36,0-1.13,0-2.27,0-3.41A282.85,282.85,0,0,1,790.68,629.19l.59-.27h0l.57-.26,17,8.48,13.59-4.85,7.22-17.41c.21-.07.41-.13.62-.18l.61-.17a277.39,277.39,0,0,1,74.68-10.18c154.53,0,280.25,126.66,280.25,282.33S1060.13,1169,905.6,1169c-2.11,0-4.23,0-6.33-.07l-3-.08c-64-2-122.67-24.46-170.1-65.26l-15.65,18.19a291.65,291.65,0,0,0,81.13,49.56l.34.14A314,314,0,0,0,898.73,1193c2.29,0,4.58.07,6.87.07,81.28,0,157.7-31.88,215.17-89.76s89.08-134.77,89.08-216.58S1178.21,728,1120.77,670.1ZM891.52,378.68l-64,24-16-68ZM786.85,326l16.67,69.33-66.67-50Zm6,88.66-96.67,34.67,23.34-86.67Zm-96.67-52-22,84-37.33-65.33C658.85,372.68,696.18,362.68,696.18,362.68Zm-73.33,40,35.33,58.67s-51.33,22-68,29.33ZM598.85,510l66.77-25.59a7.07,7.07,0,0,1,7.81,1.91L765.52,590Zm99.66-33.35a2.48,2.48,0,0,1,1-3.94L802.25,433.3a2.39,2.39,0,0,1,3.27,2.23l-2,161.15Zm126.84,89.51,3.5-143.5,68-23.5Z" transform="translate(-191.7 -300.32)"/><path class="cls-1" d="M637.82,1033.74c-22.93-41.92-35.32-89.24-36.39-139.87A315.79,315.79,0,0,0,637.82,1033.74Z" transform="translate(-191.7 -300.32)"/><path class="cls-1" d="M898.73,1193a302,302,0,0,1-106.79-21.45A314,314,0,0,0,898.73,1193Z" transform="translate(-191.7 -300.32)"/><path class="cls-1" d="M496,1199.68a304.25,304.25,0,1,1,104.75-590c32.37,11.87,64.32,29.08,91,51.15l-17.3,18.5A280.61,280.61,0,0,0,496,615.18c-154.53,0-280.25,125.72-280.25,280.25S341.42,1175.68,496,1175.68,776.2,1050,776.2,895.43c0-71.68-26.05-137.89-75.17-190.06l17.48-18.45c53.32,56.63,81.69,130.69,81.69,208.51A304.26,304.26,0,0,1,496,1199.68Z" transform="translate(-191.7 -300.32)"/><path class="cls-1" d="M698.83,1077.27l-17.65,18.41a301.52,301.52,0,0,1-43.36-61.94,294.73,294.73,0,0,0,42.58,59L698,1076.45c-46.8-50.49-71.87-114.86-72.64-186.36A282.74,282.74,0,0,0,698.83,1077.27Z" transform="translate(-191.7 -300.32)"/><path class="cls-1" d="M710.47,1121.8a291.65,291.65,0,0,0,81.13,49.56A298.94,298.94,0,0,1,708.18,1122L726,1103.4a279.44,279.44,0,0,0,170.26,65.47c-64-2-122.67-24.46-170.1-65.26Z" transform="translate(-191.7 -300.32)"/></svg>